<svg id="Layer_1" data-name="Layer 1" xmlns="http://www.w3.org/2000/svg" viewBox="0 0 233.31589 57.53333"><defs><style>.cls-1{fill:#ffb8c7;}.cls-1,.cls-2,.cls-3,.cls-4{stroke:#3c3c3c;}.cls-1,.cls-2,.cls-3,.cls-4,.cls-5{stroke-miterlimit:10;}.cls-1,.cls-2{stroke-width:2px;}.cls-2,.cls-3{fill:#ffaae1;}.cls-4{fill:#3c3c3c;}.cls-5,.cls-6{fill:#fff;}.cls-5{stroke:#fff;}</style></defs><title>buvielogoname</title><circle class="cls-1" cx="8" cy="8" r="7"/><circle class="cls-1" cx="55.44444" cy="8" r="7"/><ellipse class="cls-1" cx="32.03333" cy="29.38889" rx="28.46667" ry="27.14444"/><ellipse class="cls-2" cx="31.72222" cy="33.66669" rx="7.54444" ry="6.22222"/><path class="cls-3" d="M48.01477,39.16972a2.25242,2.25242,0,0,0,.09357-.64194c0-.95575-.5746-1.73052-1.28336-1.73052s-1.28332.77477-1.28332,1.73052c0,.95541.57409,1.72975,1.28246,1.73043A3.075,3.075,0,0,1,48.01477,39.16972Z" transform="translate(-18.75833 -3.13057)"/><path class="cls-3" d="M53.02943,39.16972a2.25242,2.25242,0,0,1-.09357-.64194c0-.95575.57461-1.73052,1.28337-1.73052s1.28332.77477,1.28332,1.73052c0,.95541-.57409,1.72975-1.28247,1.73043A3.07481,3.07481,0,0,0,53.02943,39.16972Z" transform="translate(-18.75833 -3.13057)"/><circle class="cls-4" cx="15" cy="23.62361" r="4.69583"/><circle class="cls-4" cx="48.44444" cy="23.62361" r="4.69583"/><circle class="cls-5" cx="16.89583" cy="21.99028" r="1.19583"/><circle class="cls-5" cx="50.49583" cy="21.99028" r="1.19583"/><path class="cls-6" d="M108.17285,33.70117a12.03314,12.03314,0,0,1,3.53906,1.04688,9.20929,9.20929,0,0,1,2.69727,1.95215,8.17874,8.17874,0,0,1,1.73,2.82519,10.72983,10.72983,0,0,1,.603,3.72852,12.04311,12.04311,0,0,1-.43994,3.127,10.80725,10.80725,0,0,1-1.46,3.17383,12.28232,12.28232,0,0,1-2.66846,2.83984,13.50957,13.50957,0,0,1-4.09717,2.12695,19.95689,19.95689,0,0,1-4.17627.88868,50.93194,50.93194,0,0,1-5.49414.2539H87.543V13.19775H98.022q1.44288,0,2.61963.04786,1.17627.04688,2.165.14257.988.09522,1.83545.23828.84741.14209,1.6001.333a15.04528,15.04528,0,0,1,3.59228,1.47559,10.72021,10.72021,0,0,1,2.74561,2.23779,9.50108,9.50108,0,0,1,1.74121,2.95166,10.24551,10.24551,0,0,1,.61182,3.58643,12.03244,12.03244,0,0,1-.36475,2.9834,8.43645,8.43645,0,0,1-1.17481,2.63427,8.76278,8.76278,0,0,1-2.09472,2.15821,11.50947,11.50947,0,0,1-3.126,1.5874Zm-7.58545-2.12695a20.89726,20.89726,0,0,0,2.63428-.14307,11.19831,11.19831,0,0,0,1.99951-.42822,6.35148,6.35148,0,0,0,3.4751-2.47559,7.10421,7.10421,0,0,0,1.09521-3.96728,6.13916,6.13916,0,0,0-1.14257-3.84033,6.8035,6.8035,0,0,0-3.58643-2.22168,14.9112,14.9112,0,0,0-2.793-.4917q-1.58715-.14356-3.74512-.14307h-5.8081V31.57422Zm-7.87109,4.666V50.99805h6.25244a38.39292,38.39292,0,0,0,4.126-.20606,15.74105,15.74105,0,0,0,3.2373-.65039,8.7302,8.7302,0,0,0,2.47559-1.22168,6.91743,6.91743,0,0,0,1.63476-1.65039,6.22324,6.22324,0,0,0,.88867-1.9209,8.02489,8.02489,0,0,0,.26954-2.0625,8.72034,8.72034,0,0,0-.28565-2.26953,5.35112,5.35112,0,0,0-.936-1.9043,6.06022,6.06022,0,0,0-1.71387-1.47558,8.93107,8.93107,0,0,0-2.65039-.98438,14.7345,14.7345,0,0,0-2.17383-.31738q-1.22241-.09522-3.03125-.09473Z" transform="translate(-18.75833 -3.13057)"/><path class="cls-6" d="M142.51367,51.85547a14.24916,14.24916,0,0,0,4.10938-.54A10.11794,10.11794,0,0,0,149.75,49.792a8.88082,8.88082,0,0,0,2.2207-2.36426,11.23948,11.23948,0,0,0,1.36524-3.0625,12.32715,12.32715,0,0,0,.44531-2.333q.126-1.28467.12695-2.49121V13.19775h5.17188V39.41406q0,1.49121-.1582,3.11035a20.79881,20.79881,0,0,1-.50782,3.01465,16.11927,16.11927,0,0,1-1.80859,4.34864,12.19972,12.19972,0,0,1-3.14258,3.459,14.78347,14.78347,0,0,1-4.64844,2.28516,24.98193,24.98193,0,0,1-12.48974.06347,14.76077,14.76077,0,0,1-4.52246-2.11035,11.86787,11.86787,0,0,1-3.09473-3.20508A15.87013,15.87013,0,0,1,126.835,46.333a19.4596,19.4596,0,0,1-.68213-3.39649,30.93657,30.93657,0,0,1-.20654-3.52246V13.19775h5.17334V39.541a21.61648,21.61648,0,0,0,.20605,2.93554,13.56481,13.56481,0,0,0,.65088,2.74512,9.72852,9.72852,0,0,0,3.69776,4.85645A11.864,11.864,0,0,0,142.51367,51.85547Z" transform="translate(-18.75833 -3.13057)"/><path class="cls-6" d="M184.02734,49.0625q2.30127-6.95068,4.95606-14.02832l8.15234-21.83643h5.17285L186.20605,55.66406h-4.51464L165.58789,13.19775h5.17383l8.15039,21.83643q2.68653,7.07813,4.9873,14.02832Z" transform="translate(-18.75833 -3.13057)"/><path class="cls-6" d="M209.16406,55.66406V13.19775h5.17285V55.66406Z" transform="translate(-18.75833 -3.13057)"/><path class="cls-6" d="M230.30078,50.99805h21.77344v4.666H225.12793V13.19775h25.77148v4.66553H230.30078V31.57422h18.31348v4.666H230.30078Z" transform="translate(-18.75833 -3.13057)"/></svg>